# xmcd
#
# Track frame offsets: 
#        150
#        18180
#        39055
#        69385
#        90927
#        121612
#        146695
#        172332
#        201870
#
# Disc length: 3075 seconds
#
# Revision: 3
# Processed by: cddbd v1.5.2PL0 Copyright (c) Steve Scherf et al.
# Submitted via: ExactAudioCopy v0.99pb5
#
DISCID=6b0c0109
DTITLE=The Great Jazz Trio - 'S Wonderful
DYEAR=2004
DGENRE=Jazz
TTITLE0='S Wonderful
TTITLE1=Sweet Lorraine
TTITLE2=Moanin'
TTITLE3=The Days Of Wine And Roses
TTITLE4=Take Five
TTITLE5=I Surrender Dear
TTITLE6=Night Train
TTITLE7=Lover Come Back To Me
TTITLE8=Green Sleeves
EXTD=Hank Jones - Piano\nJohn - Patitucci - Bass\nJack DeJohnette - Dr
EXTD=ums\nRecorded June 4 and 5, 2004 at Avatar Studios, New York
EXTT0=
EXTT1=
EXTT2=
EXTT3=
EXTT4=
EXTT5=
EXTT6=
EXTT7=
EXTT8=
PLAYORDER=
